<svg id="Слой_1" data-name="Слой 1" xmlns="http://www.w3.org/2000/svg" viewBox="0 0 32 33"><defs><style>.cls-1{fill:#538bca;}</style></defs><title>Aluna_logo</title><path class="cls-1" d="M50.07,24.49a1.58,1.58,0,0,0-.42.07,10.58,10.58,0,0,1-4,.79,10.46,10.46,0,0,1-7.55-3.18,2.32,2.32,0,0,0-1.91-.44,2.29,2.29,0,0,0-1.56,1.18,8.67,8.67,0,0,1-7.8,4.75c-.26,0-.51,0-.77,0a2.76,2.76,0,0,0-2.66,2.72,2.66,2.66,0,0,0,.13.82v0a5.34,5.34,0,0,1,.5,2.25,5.46,5.46,0,0,1-2.76,4.71h0A3.25,3.25,0,0,0,21.92,44l0,0A6.31,6.31,0,0,1,26,49.86c0,.12,0,.24,0,.35l0,0c0,.05,0,.11,0,.16s0,.29-.06.43,0,.15,0,.24A3.6,3.6,0,0,0,27,53.63a3.7,3.7,0,0,0,2.61,1,3.76,3.76,0,0,0,1.83-.47,10.29,10.29,0,0,1,9.86.09h0a4.16,4.16,0,0,0,3.44.08,4.07,4.07,0,0,0,2.29-2.53s1.82-5.22,1.92-5.56a12.2,12.2,0,0,0,.5-2.81l0-.68c0-.22,0-.46,0-.69a9.25,9.25,0,0,0-.16-1.34,10.21,10.21,0,0,0-2-4.39,10.63,10.63,0,0,0-2.92-2.59A11.36,11.36,0,0,0,43,33c-.23-.09-.45-.17-.66-.24a5,5,0,0,0-.6-.19A12.1,12.1,0,0,0,40,32.26c-.41,0-.62,0-.62,0a6.69,6.69,0,0,0-.92,0l-.47,0-.47.06-.46.07-.45.11-.44.12-.43.15a8.73,8.73,0,0,0-3,1.82,8.16,8.16,0,0,0-2.62,5.58v.62l0,.15,0,.29v.17l0,.21.07.41c0,.13.06.24.09.36l.1.35.13.33a6.78,6.78,0,0,0,5.85,4.21h.84l.21,0,.22,0,.28,0,.27-.05.24-.07a5.06,5.06,0,0,0,2.7-1.88,4.5,4.5,0,0,0,.57-1.09,3.36,3.36,0,0,0,.19-1.6.57.57,0,0,0-.28-.53c-.25,0-.38.72-1.08,1.63A4,4,0,0,1,39,44.77a3.64,3.64,0,0,1-1.16.29h-.27l-.43,0h-.12l-.18,0-.35-.08a4.28,4.28,0,0,1-2.47-1.68,3.93,3.93,0,0,1-.63-1.49,2.27,2.27,0,0,1-.05-.38c0-.05,0-.11,0-.17v-.49h0l0-.23a2.7,2.7,0,0,1,.08-.46,5.13,5.13,0,0,1,4.08-3.93A5,5,0,0,1,38.62,36a5.1,5.1,0,0,1,.57,0,3.54,3.54,0,0,1,.58.09l.38.08.46.13c.18.05.38.15.61.23a2.54,2.54,0,0,1,.35.17c.12.07.25.12.38.2a7.2,7.2,0,0,1,.8.56,6.47,6.47,0,0,1,1.53,1.81,6,6,0,0,1,.8,2.75,6.22,6.22,0,0,1,0,.82,5.94,5.94,0,0,1-.12.88l-.09.44c0,.15-.09.29-.13.44s-.09.3-.14.45-.12.29-.19.44a7.63,7.63,0,0,1-.44.87,3.79,3.79,0,0,1-.27.42c-.1.14-.18.28-.29.42a9,9,0,0,1-.69.77l-.38.37c-.13.12-.28.22-.42.34a3.44,3.44,0,0,1-.44.32c-.15.1-.3.21-.46.3a8.58,8.58,0,0,1-1,.49,8.27,8.27,0,0,1-1.08.38c-.18.06-.38.08-.56.12l-.29.06-.29,0-.59.06h-.6a4,4,0,0,1-.63,0l-.64-.06c-.21,0-.43-.08-.64-.12a5.85,5.85,0,0,1-.64-.13,10.35,10.35,0,0,1-1.25-.41l-.62-.24-.59-.31-.3-.15L31,48.78l-.57-.37a10.89,10.89,0,0,1-2-1.85l-.23-.26c-.07-.09-.13-.19-.2-.28l-.4-.56-.34-.6c-.05-.1-.12-.2-.17-.3l-.14-.32a9.9,9.9,0,0,1-.8-2.66,12.71,12.71,0,0,1,.67-5.83,13.51,13.51,0,0,1,8.9-8.25l.38-.12.4-.08.79-.16a7.84,7.84,0,0,1,.8-.1c.27,0,.53-.07.8-.08h.81a6.78,6.78,0,0,1,.83,0,17,17,0,0,1,1.69.18,17.62,17.62,0,0,1,6.1,2.13,1.55,1.55,0,0,0,.42.25h0a1.59,1.59,0,0,0,2-.83l.77-1.93a1.5,1.5,0,0,0,.18-.71,1.57,1.57,0,0,0-.48-1.12,1.61,1.61,0,0,0-1.14-.45" transform="translate(-19.69 -21.68)"/></svg>